<svg width="45" height="39" viewBox="0 0 45 39" fill="none" xmlns="http://www.w3.org/2000/svg">
<path d="M39.375 19.5H31.875M35.625 22.75L35.625 16.25" stroke="black" stroke-width="1.5" stroke-linecap="round"/>
<path d="M5.625 31.0561C5.625 27.1349 8.80748 23.7948 13.1326 23.1768L13.5222 23.1211C16.9855 22.6263 20.5145 22.6263 23.9778 23.1211L24.3674 23.1768C28.6925 23.7948 31.875 27.1349 31.875 31.0561C31.875 32.751 30.3403 34.125 28.4473 34.125H9.05274C7.15965 34.125 5.625 32.751 5.625 31.0561Z" fill="#363853" fill-opacity="0.15"/>
<path d="M26.4063 11.2734C26.4063 14.8072 22.9785 17.6719 18.75 17.6719C14.5216 17.6719 11.0938 14.8072 11.0938 11.2734C11.0938 7.73968 14.5216 4.875 18.75 4.875C22.9785 4.875 26.4063 7.73968 26.4063 11.2734Z" fill="#363853" fill-opacity="0.15"/>
<path d="M5.625 31.0561C5.625 27.1349 8.80748 23.7948 13.1326 23.1768L13.5222 23.1211C16.9855 22.6263 20.5145 22.6263 23.9778 23.1211L24.3674 23.1768C28.6925 23.7948 31.875 27.1349 31.875 31.0561C31.875 32.751 30.3403 34.125 28.4473 34.125H9.05274C7.15965 34.125 5.625 32.751 5.625 31.0561Z" stroke="black" stroke-width="1.5"/>
<path d="M26.4063 11.2734C26.4063 14.8072 22.9785 17.6719 18.75 17.6719C14.5216 17.6719 11.0938 14.8072 11.0938 11.2734C11.0938 7.73968 14.5216 4.875 18.75 4.875C22.9785 4.875 26.4063 7.73968 26.4063 11.2734Z" stroke="black" stroke-width="1.5"/>
</svg>
